<svg width="34" height="34" viewBox="0 0 34 34" fill="none" xmlns="http://www.w3.org/2000/svg">
    <mask id="ntbjpzqu5a" style="mask-type:alpha" maskUnits="userSpaceOnUse" x="0" y="0" width="34" height="34">
        <path fill="#D9D9D9" d="M0 0h34v34H0z"/>
    </mask>
    <g mask="url(#ntbjpzqu5a)">
        <path d="M19.9 17.176c0-1.358.624-2.35 1.836-3.12-.698-.991-1.726-1.505-3.084-1.615-1.322-.11-2.753.734-3.267.734-.55 0-1.799-.698-2.79-.698-2.056.037-4.222 1.615-4.222 4.883 0 .954.147 1.945.514 2.973.478 1.358 2.166 4.662 3.928 4.589.918 0 1.579-.661 2.79-.661 1.175 0 1.762.66 2.79.66 1.799 0 3.34-3.01 3.781-4.368-2.386-1.138-2.276-3.303-2.276-3.377zm-2.055-6.02c.99-1.175.88-2.276.88-2.68-.88.073-1.908.624-2.496 1.285-.66.734-1.028 1.652-.954 2.643.954.073 1.835-.404 2.57-1.248z" fill="#fff"/>
    </g>
</svg>
