<svg width="150" height="51" viewBox="0 0 150 51" fill="none" xmlns="http://www.w3.org/2000/svg">
    <mask id="srjoz1246a" style="mask-type:alpha" maskUnits="userSpaceOnUse" x="0" y="0" width="150" height="51">
        <path fill="#D9D9D9" d="M0 0h150v51H0z"/>
    </mask>
    <g clip-path="url(#7tvjxxzshb)">
        <path d="M30.586 19.12a12.757 12.757 0 0 0-6.001-2.81c-2.255-.412-4.517-.211-6.782.593-2.28.811-4.157 2.084-5.637 3.818a12.461 12.461 0 0 0-2.831 5.955c-.41 2.235-.213 4.462.59 6.682.804 2.216 2.075 4.06 3.826 5.526a12.804 12.804 0 0 0 6.018 2.831c2.266.422 4.532.226 6.797-.582 2.258-.805 4.124-2.08 5.604-3.836a12.656 12.656 0 0 0 2.828-5.991c.407-2.242.213-4.465-.587-6.67-.803-2.217-2.075-4.058-3.822-5.52l-.003.003zm-14.818 9.766c-.116-1.24.06-2.395.518-3.432.454-1.026 1.146-1.834 2.053-2.402.321-.2.66-.365 1.009-.49a5.576 5.576 0 0 1 2.046-.304c1.138.04 2.262.382 3.342 1.019 1.08.64 1.996 1.54 2.72 2.68.724 1.141 1.152 2.353 1.275 3.6.122 1.245-.047 2.4-.505 3.432-.453 1.026-1.145 1.834-2.056 2.403-.317.2-.656.36-1.002.486a5.523 5.523 0 0 1-2.067.3c-1.149-.04-2.276-.386-3.353-1.022-1.08-.64-1.996-1.541-2.72-2.681-.724-1.14-1.149-2.349-1.26-3.593v.004z" fill="#ECC24B"/>
        <path d="M40.08 14.923c.896-1.437.975-3.01.349-4.172a3.184 3.184 0 0 0-.742-.468c-.627-.286-1.326-.376-2.032-.3 0 0-1.17.089-2.085.764-.476.33-.9.762-1.221 1.277-.66 1.054-.742 2.205-.328 3.085.14.103.295.196.465.275.644.293 1.386.322 2.11.125v1.008c.242-.014.487-.05.728-.118v.887c1.084-.437 2.089-1.294 2.763-2.367l-.008.004zM63.46 31.535a6.03 6.03 0 0 1-.443 1.515 5.147 5.147 0 0 1-1.995 2.335c-.31.193-.637.35-.972.472a5.425 5.425 0 0 1-2.007.293c-1.113-.04-2.211-.372-3.26-.994-1.047-.622-1.937-1.498-2.64-2.602-.702-1.109-1.112-2.281-1.224-3.49-.112-1.204.058-2.327.504-3.331a5.147 5.147 0 0 1 1.995-2.334c.31-.194.642-.354.98-.476a5.34 5.34 0 0 1 1.988-.293c1.106.036 2.198.372 3.246.99 1.051.622 1.938 1.498 2.64 2.606.209.33.389.662.544 1.001h6.652a7.575 7.575 0 0 0-.083-.468c-1.08-5.816-5.845-9.763-11.972-9.763-.684 0-1.354.047-2.003.14-4.909.697-8.705 3.95-10.081 8.454a13.093 13.093 0 0 0-.559 3.821c0 .687.054 1.355.152 2.006.918 6.038 5.957 10.374 12.495 10.374.55 0 1.087-.036 1.617-.097 4.671-.55 8.334-3.492 9.858-7.807.025-.075.054-.147.08-.222.014-.035.025-.075.035-.11.216-.648.382-1.32.494-2.013h-6.037l-.003-.007zM138.184 41.783h-15.37V17.485h14.664c1.48 0 2.683 1.19 2.683 2.663a2.673 2.673 0 0 1-2.683 2.664h-8.389v4.082h7.276a2.612 2.612 0 0 1 2.622 2.603 2.613 2.613 0 0 1-2.622 2.602h-7.276v4.358h9.095c1.48 0 2.683 1.194 2.683 2.663 0 1.47-1.203 2.663-2.683 2.663zM113.756 32.692c1.149-.64 2.244-1.583 3.029-2.97.627-1.108.958-2.424.958-3.968 0-1.545-.364-3.046-1.087-4.297a7.625 7.625 0 0 0-3.04-2.924c-1.301-.697-2.795-1.048-4.478-1.048H98.563v24.298h6.275v-7.747s1.848-.003 2.766 0h-.014l4.729 7.472a.484.484 0 0 0 .443.279h6.714l-5.716-9.091-.004-.004zm-9.095-3.832v-5.873h4.099c.814 0 1.502.254 2.064.758.562.507.839 1.204.839 2.095a3.07 3.07 0 0 1-.381 1.519 2.926 2.926 0 0 1-1.059 1.094 2.878 2.878 0 0 1-1.517.407h-4.045zM30.586 19.12a12.757 12.757 0 0 0-6.001-2.81c-2.255-.411-4.517-.211-6.782.593-2.28.812-4.157 2.084-5.637 3.818a12.461 12.461 0 0 0-2.831 5.956c-.41 2.234-.213 4.461.59 6.681.804 2.217 2.075 4.061 3.826 5.527a12.805 12.805 0 0 0 6.018 2.831c2.266.422 4.532.225 6.797-.583 2.258-.804 4.124-2.08 5.604-3.836a12.656 12.656 0 0 0 2.828-5.99c.407-2.242.213-4.466-.587-6.671-.803-2.217-2.075-4.058-3.822-5.52l-.003.004zm-14.818 9.766c-.116-1.24.06-2.395.518-3.432.454-1.026 1.146-1.834 2.053-2.402.321-.2.66-.365 1.009-.49a5.578 5.578 0 0 1 2.046-.304c1.138.04 2.262.383 3.342 1.02 1.08.64 1.996 1.54 2.72 2.68.724 1.14 1.152 2.353 1.275 3.6.122 1.244-.047 2.399-.505 3.432-.453 1.026-1.145 1.834-2.056 2.402-.317.2-.656.361-1.002.486a5.523 5.523 0 0 1-2.067.3c-1.149-.039-2.276-.385-3.353-1.022-1.08-.64-1.996-1.54-2.72-2.68-.724-1.141-1.149-2.35-1.26-3.593v.003zM88.039 19.577a3.677 3.677 0 0 0-3.48-2.456h-2.132c-1.567 0-2.96.983-3.476 2.453L71.143 41.79h6.519l1.055-3.464 1.437-5.698h-.01l1.991-7.44a1.398 1.398 0 0 1 2.687 0l1.989 7.443h-.008l1.48 5.77 1.038 3.389h6.487L88.05 19.58l-.011-.004z" fill="#333"/>
        <path d="M91.161 33.68a1.946 1.946 0 0 0-1.124-.379h-10.06l-.727 2.881h10.053a1.972 1.972 0 0 0 1.938-1.973c0-.186-.033-.361-.08-.529z" fill="#333"/>
        <path d="M34.347 12.027a4.371 4.371 0 0 1 1.22-1.276c.916-.672 2.086-.765 2.086-.765a3.845 3.845 0 0 1 2.032.3c.277.125.522.286.742.469a3.126 3.126 0 0 0-1.466-1.359c-.627-.286-1.326-.375-2.032-.3 0 0-1.17.09-2.085.765a4.37 4.37 0 0 0-1.221 1.276c-.922 1.473-.72 3.139.396 3.975-.414-.88-.331-2.03.328-3.085zM36.59 16.52v.998c.246-.054.487-.129.728-.225v-.887a3.671 3.671 0 0 1-.727.118v-.004zM91.162 33.68a1.963 1.963 0 0 0-1.858-1.444H80.24l-.104.39h.01l-.169.675h10.06c.422.007.807.15 1.124.383v-.004z" fill="gray"/>
        <path d="M34.48 15.387a2.693 2.693 0 0 1-.465-.275 2.38 2.38 0 0 0 1.188 1.165c.429.197.904.272 1.383.243v-1.008c-.724.193-1.466.168-2.11-.125h.003zM40.427 10.75c.627 1.159.551 2.735-.349 4.172-.674 1.076-1.678 1.93-2.763 2.367v1.119c1.351-.293 2.67-1.28 3.49-2.596 1.16-1.851.952-3.939-.378-5.061zM91.16 33.68c.048.168.08.343.08.53a1.97 1.97 0 0 1-1.938 1.972H79.25l-.27 1.066h11.053a1.972 1.972 0 0 0 1.124-3.568h.004z" fill="#000"/>
    </g>
    <defs>
        <clipPath id="7tvjxxzshb">
            <path fill="#fff" transform="translate(9.126 9.067)" d="M0 0h131.741v32.867H0z"/>
        </clipPath>
    </defs>
</svg>
