<svg width="98" height="32" viewBox="0 0 98 32" fill="none" xmlns="http://www.w3.org/2000/svg">
    <mask id="lpvtxkjoza" style="mask-type:alpha" maskUnits="userSpaceOnUse" x="0" y="0" width="98" height="32">
        <path fill="#D9D9D9" d="M0 0h98v32H0z"/>
    </mask>
    <g mask="url(#lpvtxkjoza)">
        <path d="M18.48 10.525a8.514 8.514 0 0 0-4.008-1.881c-1.506-.275-3.017-.141-4.53.397-1.523.543-2.777 1.395-3.766 2.556a8.35 8.35 0 0 0-1.89 3.987c-.275 1.496-.143 2.987.394 4.473.536 1.484 1.386 2.719 2.555 3.7a8.545 8.545 0 0 0 4.02 1.895c1.514.283 3.027.151 4.54-.39 1.509-.538 2.755-1.393 3.744-2.568a8.48 8.48 0 0 0 1.889-4.01c.272-1.501.142-2.99-.393-4.466-.536-1.484-1.385-2.717-2.552-3.695l-.003.002zm-9.898 6.538c-.077-.83.041-1.603.347-2.297a3.548 3.548 0 0 1 1.371-1.609c.214-.134.44-.244.674-.327.42-.151.883-.218 1.366-.204.76.027 1.511.256 2.233.682a5.432 5.432 0 0 1 1.817 1.795 5.48 5.48 0 0 1 .851 2.41c.082.833-.03 1.606-.337 2.297a3.537 3.537 0 0 1-2.042 1.934c-.424.151-.89.22-1.381.201-.768-.026-1.52-.258-2.24-.684a5.432 5.432 0 0 1-1.817-1.795c-.483-.764-.767-1.572-.842-2.405v.002z" fill="#ECC24B"/>
        <path d="M24.826 7.716c.598-.962.651-2.015.233-2.793a2.121 2.121 0 0 0-.496-.314 2.587 2.587 0 0 0-1.357-.2s-.782.06-1.393.511c-.317.22-.601.51-.815.855-.44.706-.496 1.476-.22 2.065.095.07.198.132.311.184.43.197.926.216 1.41.084v.675c.161-.01.325-.033.486-.079v.594c.724-.292 1.395-.867 1.845-1.585l-.004.003zM40.442 18.837a4.043 4.043 0 0 1-.296 1.015 3.444 3.444 0 0 1-1.333 1.563c-.207.129-.426.234-.65.316a3.616 3.616 0 0 1-1.34.196c-.743-.027-1.477-.25-2.177-.666a5.295 5.295 0 0 1-1.764-1.742 5.246 5.246 0 0 1-.817-2.336c-.075-.806.038-1.557.336-2.23a3.444 3.444 0 0 1 1.988-1.881 3.56 3.56 0 0 1 1.328-.196c.738.024 1.467.249 2.167.663a5.258 5.258 0 0 1 1.764 1.744c.14.22.26.443.363.67h4.444c-.007-.036-.012-.074-.017-.11a4.921 4.921 0 0 0-.038-.203c-.722-3.894-3.905-6.536-7.998-6.536-.457 0-.904.031-1.337.093-3.28.467-5.815 2.645-6.735 5.66a8.784 8.784 0 0 0-.372 2.559c0 .46.036.907.1 1.342.614 4.042 3.98 6.945 8.347 6.945.368 0 .726-.024 1.08-.064 3.12-.369 5.567-2.339 6.585-5.227l.053-.148c.01-.024.017-.05.024-.075.145-.433.255-.883.33-1.347h-4.033l-.002-.005zM90.354 25.698H80.088V9.43h9.794c.99 0 1.793.797 1.793 1.783 0 .984-.801 1.783-1.793 1.783H84.28v2.733h4.86c.967 0 1.752.78 1.752 1.742s-.785 1.742-1.752 1.742h-4.86v2.918h6.075c.989 0 1.793.8 1.793 1.783a1.79 1.79 0 0 1-1.793 1.783zM74.038 19.612a5.179 5.179 0 0 0 2.023-1.989c.419-.742.64-1.623.64-2.656 0-1.034-.243-2.04-.726-2.877a5.095 5.095 0 0 0-2.03-1.958c-.87-.466-1.868-.7-2.991-.7H63.89v16.266h4.19v-5.186s1.235-.003 1.849 0h-.01l3.159 5.001a.324.324 0 0 0 .296.187h4.485l-3.819-6.086-.002-.002zm-6.075-2.566v-3.932H70.7c.544 0 1.003.17 1.379.508.375.34.56.806.56 1.402 0 .371-.084.71-.255 1.017-.17.306-.407.55-.707.732-.301.182-.638.273-1.013.273h-2.702zM18.482 10.526a8.513 8.513 0 0 0-4.008-1.881c-1.506-.275-3.017-.141-4.53.397-1.523.543-2.777 1.395-3.766 2.556a8.35 8.35 0 0 0-1.89 3.987c-.275 1.496-.143 2.987.394 4.473.536 1.484 1.386 2.719 2.555 3.7a8.545 8.545 0 0 0 4.02 1.895c1.514.283 3.027.151 4.54-.39 1.509-.538 2.755-1.393 3.744-2.568a8.481 8.481 0 0 0 1.889-4.01c.271-1.501.142-2.99-.392-4.466-.537-1.484-1.386-2.717-2.553-3.695l-.003.002zm-9.898 6.538c-.077-.83.041-1.603.347-2.297a3.547 3.547 0 0 1 1.371-1.609c.214-.134.44-.244.674-.327a3.72 3.72 0 0 1 1.366-.204c.76.026 1.511.256 2.233.682a5.432 5.432 0 0 1 1.817 1.795 5.48 5.48 0 0 1 .851 2.41c.082.833-.031 1.606-.336 2.297a3.538 3.538 0 0 1-2.043 1.934c-.424.151-.89.22-1.381.201-.768-.026-1.52-.258-2.24-.684a5.432 5.432 0 0 1-1.817-1.795c-.483-.764-.767-1.572-.842-2.405v.002zM56.859 10.832a2.456 2.456 0 0 0-2.325-1.645H53.11a2.456 2.456 0 0 0-2.322 1.642l-5.216 14.874h4.355l.705-2.32.96-3.814h-.007l1.33-4.98a.934.934 0 0 1 1.795 0l1.328 4.983h-.005l.99 3.862.692 2.269h4.333l-5.182-14.869-.007-.002z" fill="#333"/>
        <path d="M58.946 20.273a1.298 1.298 0 0 0-.75-.253h-6.72l-.486 1.928h6.715a1.319 1.319 0 0 0 1.294-1.32c0-.125-.022-.242-.053-.355z" fill="#333"/>
        <path d="M20.994 5.777c.216-.347.497-.634.815-.854.611-.45 1.393-.512 1.393-.512.472-.053.938.01 1.357.2.185.085.349.192.496.314a2.09 2.09 0 0 0-.98-.91 2.587 2.587 0 0 0-1.357-.2s-.781.06-1.392.512c-.318.22-.602.51-.816.854-.616.986-.481 2.102.264 2.662-.276-.59-.22-1.36.22-2.066zM22.493 8.786v.667c.164-.036.325-.086.486-.15v-.594a2.45 2.45 0 0 1-.486.079v-.002zM58.945 20.273a1.311 1.311 0 0 0-1.241-.967H51.65l-.07.261h.008l-.113.452h6.72c.28.005.538.1.75.256v-.002z" fill="gray"/>
        <path d="M21.082 8.026a1.795 1.795 0 0 1-.31-.184c.158.337.425.613.793.78.287.132.604.182.924.163V8.11c-.483.13-.979.113-1.41-.084h.003zM25.053 4.923c.419.775.369 1.83-.233 2.792-.45.72-1.121 1.293-1.845 1.585v.749c.902-.196 1.782-.857 2.331-1.738.775-1.24.635-2.637-.253-3.388zM58.944 20.273c.03.112.052.23.052.354 0 .723-.577 1.311-1.294 1.32h-6.715l-.18.714h7.383a1.319 1.319 0 0 0 .751-2.388h.002z" fill="#000"/>
    </g>
</svg>
